grf
version=1
nRows=15
nColumns=28
inDegrees=yes
endheader
time	ground_force_1_vx	ground_force_1_vy	ground_force_1_vz	ground_force_1_px	ground_force_1_py	ground_force_1_pz	ground_moment_1_mx	ground_moment_1_my	ground_moment_1_mz	ground_force_2_vx	ground_force_2_vy	ground_force_2_vz	ground_force_2_px	ground_force_2_py	ground_force_2_pz	ground_moment_2_mx	ground_moment_2_my	ground_moment_2_mz	ground_force_3_vx	ground_force_3_vy	ground_force_3_vz	ground_force_3_px	ground_force_3_py	ground_force_3_pz	ground_moment_3_mx	ground_moment_3_my	ground_moment_3_mz
2.550000	-6.676889	371.399956	30.190149	-0.224289	0.001308	-0.377682	0.002308	-1.301018	-0.003743	0.000000	0.000000	0.000000	0.000000	0.000000	0.000000	0.000000	0.000000	0.000000	0.000000	0.000000	0.000000	0.000000	0.000000	0.000000	0.000000	0.000000	0.000000
2.550667	-6.660361	371.366727	30.222204	-0.224014	0.001309	-0.377788	0.002322	-1.308811	-0.003765	0.000000	0.000000	0.000000	0.000000	0.000000	0.000000	0.000000	0.000000	0.000000	0.000000	0.000000	0.000000	0.000000	0.000000	0.000000	0.000000	0.000000	0.000000
2.551333	-6.644946	371.346366	30.253113	-0.223835	0.001309	-0.377642	0.002336	-1.316997	-0.003789	0.000000	0.000000	0.000000	0.000000	0.000000	0.000000	0.000000	0.000000	0.000000	0.000000	0.000000	0.000000	0.000000	0.000000	0.000000	0.000000	0.000000	0.000000
2.552000	-6.630594	371.339077	30.282827	-0.224989	0.001307	-0.377742	0.002352	-1.325568	-0.003814	0.000000	0.000000	0.000000	0.000000	0.000000	0.000000	0.000000	0.000000	0.000000	0.000000	0.000000	0.000000	0.000000	0.000000	0.000000	0.000000	0.000000	0.000000
2.552667	-6.617253	371.345025	30.311315	-0.223376	0.001312	-0.378519	0.002367	-1.334515	-0.003839	0.000000	0.000000	0.000000	0.000000	0.000000	0.000000	0.000000	0.000000	0.000000	0.000000	0.000000	0.000000	0.000000	0.000000	0.000000	0.000000	0.000000	0.000000
2.553333	-6.604872	371.364301	30.338565	-0.222587	0.001317	-0.379762	0.002384	-1.343826	-0.003866	0.000000	0.000000	0.000000	0.000000	0.000000	0.000000	0.000000	0.000000	0.000000	0.000000	0.000000	0.000000	0.000000	0.000000	0.000000	0.000000	0.000000	0.000000
2.554000	-6.593411	371.396966	30.364570	-0.222288	0.001318	-0.380026	0.002401	-1.353487	-0.003894	0.000000	0.000000	0.000000	0.000000	0.000000	0.000000	0.000000	0.000000	0.000000	0.000000	0.000000	0.000000	0.000000	0.000000	0.000000	0.000000	0.000000	0.000000
2.554667	-6.582819	371.443073	30.389311	-0.221116	0.001318	-0.379254	0.002419	-1.363483	-0.003923	0.000000	0.000000	0.000000	0.000000	0.000000	0.000000	0.000000	0.000000	0.000000	0.000000	0.000000	0.000000	0.000000	0.000000	0.000000	0.000000	0.000000	0.000000
2.555333	-6.573015	371.502694	30.412760	-0.219462	0.001321	-0.379361	0.002437	-1.373796	-0.003952	0.000000	0.000000	0.000000	0.000000	0.000000	0.000000	0.000000	0.000000	0.000000	0.000000	0.000000	0.000000	0.000000	0.000000	0.000000	0.000000	0.000000	0.000000
2.556000	-6.563886	371.575943	30.434893	-0.219528	0.001328	-0.381590	0.002456	-1.384412	-0.003983	0.000000	0.000000	0.000000	0.000000	0.000000	0.000000	0.000000	0.000000	0.000000	0.000000	0.000000	0.000000	0.000000	0.000000	0.000000	0.000000	0.000000	0.000000
2.556667	-6.555328	371.662975	30.455701	-0.221021	0.001322	-0.380597	0.002475	-1.395314	-0.004014	0.000000	0.000000	0.000000	0.000000	0.000000	0.000000	0.000000	0.000000	0.000000	0.000000	0.000000	0.000000	0.000000	0.000000	0.000000	0.000000	0.000000	0.000000
2.557333	-6.547262	371.763936	30.475181	-0.218458	0.001325	-0.380048	0.002495	-1.406488	-0.004046	0.000000	0.000000	0.000000	0.000000	0.000000	0.000000	0.000000	0.000000	0.000000	0.000000	0.000000	0.000000	0.000000	0.000000	0.000000	0.000000	0.000000	0.000000
2.558000	-6.539636	371.878947	30.493324	-0.218201	0.001326	-0.380221	0.002515	-1.417920	-0.004079	0.000000	0.000000	0.000000	0.000000	0.000000	0.000000	0.000000	0.000000	0.000000	0.000000	0.000000	0.000000	0.000000	0.000000	0.000000	0.000000	0.000000	0.000000
2.558667	-6.532402	372.008141	30.510107	-0.218786	0.001325	-0.380349	0.002536	-1.429595	-0.004113	0.000000	0.000000	0.000000	0.000000	0.000000	0.000000	0.000000	0.000000	0.000000	0.000000	0.000000	0.000000	0.000000	0.000000	0.000000	0.000000	0.000000	0.000000
2.559333	-6.525503	372.151678	30.525492	-0.218829	0.001326	-0.380537	0.002557	-1.441499	-0.004147	0.000000	0.000000	0.000000	0.000000	0.000000	0.000000	0.000000	0.000000	0.000000	0.000000	0.000000	0.000000	0.000000	0.000000	0.000000	0.000000	0.000000	0.000000
